HIERARCHY
ROOT hip
{
	OFFSET 0.000000 0.000000 0.000000 
	CHANNELS 6 Xposition Yposition Zposition Xrotation Zrotation Yrotation
	JOINT abdomen
	{
		OFFSET 0.000000 3.402643 0.000000 
		CHANNELS 3 Xrotation Zrotation Yrotation
		JOINT chest
		{
			OFFSET 0.000000 8.438565 -0.680529 
			CHANNELS 3 Xrotation Zrotation Yrotation
			JOINT neck
			{
				OFFSET 0.000000 10.207942 -0.272212 
				CHANNELS 3 Xrotation Zrotation Yrotation
				JOINT head
				{
					OFFSET 0.000000 3.130431 0.000000 
					CHANNELS 3 Xrotation Zrotation Yrotation
					End Site
					{
						OFFSET 0.000000 3.130435 0.000000 
					}
				}
			}
			JOINT lCollar
			{
				OFFSET 3.470700 6.669187 -0.816635 
				CHANNELS 3 Yrotation Zrotation Xrotation
				JOINT lShldr
				{
					OFFSET 3.198488 0.000000 0.000000 
					CHANNELS 3 Zrotation Yrotation Xrotation
					JOINT lForeArm
					{
						OFFSET 10.139888 0.000000 0.000000 
						CHANNELS 3 Yrotation Zrotation Xrotation
						JOINT lHand
						{
							OFFSET 8.370511 0.000000 0.000000 
							CHANNELS 3 Zrotation Yrotation Xrotation
							End Site
							{
								OFFSET 4.083176 0.000000 0.000000 
							}
						}
					}
				}
			}
			JOINT rCollar
			{
				OFFSET -3.470700 6.669187 -0.816635 
				CHANNELS 3 Yrotation Zrotation Xrotation
				JOINT rShldr
				{
					OFFSET -3.198488 0.000000 0.000000 
					CHANNELS 3 Zrotation Yrotation Xrotation
					JOINT rForeArm
					{
						OFFSET -10.139888 0.000000 0.000000 
						CHANNELS 3 Yrotation Zrotation Xrotation
						JOINT rHand
						{
							OFFSET -8.370511 0.000000 0.000000 
							CHANNELS 3 Zrotation Yrotation Xrotation
							End Site
							{
								OFFSET -4.083176 0.000000 0.000000 
							}
						}
					}
				}
			}
		}
	}
	JOINT lThigh
	{
		OFFSET 5.308129 -1.633274 1.361059 
		CHANNELS 3 Xrotation Zrotation Yrotation
		JOINT lShin
		{
			OFFSET -2.041588 -20.007561 0.000000 
			CHANNELS 3 Xrotation Zrotation Yrotation
			JOINT lFoot
			{
				OFFSET 0.000000 -19.190928 -1.224953 
				CHANNELS 3 Xrotation Yrotation Zrotation
				End Site
				{
					OFFSET 0.000000 -2.449906 4.627600 
				}
			}
		}
	}
	JOINT rThigh
	{
		OFFSET -5.308129 -1.633274 1.361059 
		CHANNELS 3 Xrotation Zrotation Yrotation
		JOINT rShin
		{
			OFFSET 2.041588 -20.007561 0.000000 
			CHANNELS 3 Xrotation Zrotation Yrotation
			JOINT rFoot
			{
				OFFSET 0.000000 -19.190928 -1.224953 
				CHANNELS 3 Xrotation Yrotation Zrotation
				End Site
				{
					OFFSET 0.000000 -2.449906 4.627600 
				}
			}
		}
	}
}
MOTION
Frames: 10
Frame Time: 0.033333
1.077311 52.154716 6.533866 -18.037107 8.767560 30.194975 0.000000 0.000000 0.000000 30.908089 1.993350 5.315730 25.475424 15.417438 1.054362 -29.500696 -8.314630 -9.052230 -29.408674 20.931747 24.996386 -96.701996 -31.178816 1.958603 -58.860931 7.993971 76.102402 -12.455401 -4.831412 -58.893463 -25.351067 -6.585828 21.244556 58.646107 -13.480914 67.038948 48.834225 -31.848721 51.980312 43.851501 0.876645 -80.445351 18.314405 7.363480 19.080555 25.952194 -0.073714 -0.900184 9.118815 10.025028 8.846872 25.717932 7.215601 3.007294 22.793333 -14.424135 -2.333221 11.716044 28.776659 -8.752522 
1.019481 52.233807 6.561076 -18.826368 8.274841 28.587410 0.000000 0.000000 0.000000 31.531305 2.090686 5.286802 25.601419 14.363270 0.968757 -29.729181 -7.854023 -7.443617 -27.944839 19.809502 24.989109 -95.382813 -29.858871 1.273959 -60.056774 7.952309 76.310677 -12.076901 -5.561419 -58.794434 -24.241911 -6.789999 21.314947 59.160843 -13.497725 67.406296 49.160793 -32.393055 53.772743 43.069782 1.553524 -80.192665 19.470131 7.910407 19.212214 25.353855 -0.430573 -0.949445 9.364038 10.798712 6.782402 26.635927 7.401106 3.038003 21.616686 -14.343615 -2.425362 11.906865 30.269808 -8.305844 
0.964879 52.326225 6.570725 -19.381344 7.628747 26.947802 0.000000 0.000000 0.000000 31.944338 2.129649 5.267646 25.683058 13.387137 0.883504 -29.935308 -7.325369 -5.849150 -26.867050 18.746830 24.990177 -94.109268 -28.449776 0.625765 -61.231388 8.236586 76.542343 -11.644193 -6.133743 -58.727005 -23.128323 -6.953823 21.406401 59.737400 -13.359238 67.820587 48.918457 -33.173237 54.429886 41.859814 2.337293 -79.942505 20.469288 8.104856 19.223082 24.477428 -0.343901 -0.874647 9.880826 11.221777 3.706333 27.269245 7.449605 3.057329 20.445576 -14.158382 -2.474493 11.999297 31.476469 -8.086855 
0.931743 52.432678 6.564640 -19.547525 6.896512 25.412413 0.000000 0.000000 0.000000 31.951056 2.100509 5.257525 25.718973 12.645198 0.831504 -30.085655 -6.630135 -4.493870 -26.467798 17.902670 24.994677 -93.143227 -26.933027 0.120642 -62.209896 9.064752 76.709534 -11.330384 -6.051683 -58.735714 -22.186125 -7.033328 21.501350 60.258789 -12.915425 68.147087 47.952446 -34.115746 53.652328 40.317078 3.880885 -79.661385 21.050346 7.754080 19.006941 23.287775 0.438891 -0.599593 10.910604 10.968685 -1.183112 27.487606 7.352774 3.039454 19.395967 -13.852440 -2.520957 12.043662 31.847540 -8.108378 
0.898331 52.577461 6.563920 -19.724430 5.978634 23.475914 0.000000 0.000000 0.000000 32.068775 2.110266 5.247766 25.580048 11.600601 0.748880 -30.162447 -5.753598 -3.053123 -25.291372 17.303144 24.989414 -92.579941 -25.244957 -0.189981 -62.622772 9.868376 76.398308 -11.255706 -5.981226 -58.728786 -21.151831 -7.208687 21.594074 60.686417 -11.988749 68.345932 46.664497 -34.687180 51.281876 39.696247 3.551120 -79.802689 21.930025 6.953499 18.616503 21.503719 1.942014 -0.181764 10.998495 8.850482 -3.065518 27.809509 7.245135 3.023628 18.160631 -13.523499 -2.552696 12.229565 32.272720 -7.185388 
0.856372 52.754398 6.562405 -19.946535 4.879404 20.998083 0.000000 0.000000 0.000000 32.306358 2.149199 5.238373 25.260416 10.175150 0.645484 -30.161411 -4.617785 -1.391651 -23.335608 16.786316 24.996645 -92.209549 -23.204105 -0.419920 -62.992207 10.575285 76.300552 -11.313930 -6.018208 -58.669235 -19.817247 -7.547334 21.667126 61.242008 -10.665140 68.565491 45.249596 -35.365875 48.548767 39.450699 2.623443 -80.065758 23.045918 5.879089 18.064194 19.450424 3.886057 0.394801 10.424639 5.511301 -3.272351 28.279142 6.991577 2.932780 16.600151 -12.968062 -2.537645 12.205076 32.103584 -5.679772 
0.792686 52.982197 6.555439 -20.257135 3.417352 17.561729 0.000000 0.000000 0.000000 32.777561 2.188200 5.209102 24.667593 8.085655 0.483373 -29.967865 -2.948997 0.703701 -20.044735 16.321663 24.993307 -91.969292 -20.439354 -0.564937 -63.547028 11.084772 76.908554 -11.508626 -6.255373 -58.488468 -17.836170 -8.280008 21.726631 62.190456 -8.617254 68.931473 43.752140 -36.531792 46.000843 39.491100 1.537678 -80.367882 24.479700 4.463841 17.373089 17.169067 6.412868 1.113221 8.728341 0.560262 -1.520072 28.979254 6.385459 2.749064 14.529800 -11.815619 -2.436115 11.594519 30.465916 -3.380059 
0.736039 53.140690 6.577379 -20.662176 2.120088 14.268077 0.000000 0.000000 0.000000 33.407455 2.159225 5.150179 23.981565 6.054579 0.344010 -29.595398 -1.424338 2.578784 -16.426018 15.513774 24.991528 -91.250748 -17.768198 -0.966434 -63.787914 11.023043 76.520325 -11.515038 -6.335303 -58.420704 -15.795439 -9.106212 21.823967 63.098988 -6.563373 69.233116 42.881054 -37.725529 44.877121 38.816349 0.879283 -80.458084 25.921354 3.380499 16.795628 15.361423 8.277850 1.681691 7.681618 -3.998463 -0.086866 29.805590 5.623727 2.542621 12.767026 -10.467649 -2.260143 10.933990 28.653843 -0.940832 
0.680370 53.252285 6.605288 -20.962656 0.776543 10.977660 0.000000 0.000000 0.000000 33.977947 2.120514 5.091624 23.275690 4.091773 0.196208 -29.165430 0.058421 4.394539 -12.758627 14.520040 24.995382 -90.293274 -15.134391 -1.466497 -63.852543 10.812778 75.727821 -11.400287 -6.438552 -58.393269 -13.608541 -10.043833 21.981272 64.083328 -4.507705 69.559517 42.248940 -39.042603 44.260361 37.832401 0.432193 -80.458992 27.215530 2.442143 16.291363 13.850060 10.033832 2.145861 6.978618 -8.723260 1.028978 30.412243 4.754516 2.279764 11.405070 -8.934818 -1.989796 10.243389 26.381815 1.763886 
0.626467 53.297588 6.637412 -21.040592 -0.696904 7.627454 0.000000 0.000000 0.000000 34.280460 2.130338 5.062348 22.619043 2.177733 0.049164 -28.672489 1.534080 6.154574 -9.036683 13.303051 24.992687 -89.050453 -12.447981 -2.110855 -63.711826 10.499159 74.561607 -11.169542 -6.639482 -58.378803 -11.206550 -11.189668 22.219637 65.251625 -2.447620 69.974304 41.880737 -40.631599 44.138042 36.488789 0.224459 -80.391762 28.185349 1.662130 15.872446 12.583917 11.831744 2.681779 6.919418 -14.253728 1.452176 30.635660 3.758883 1.998897 10.459629 -7.067146 -1.647289 9.626742 23.284765 5.169790 
